G04 Created by reaConverter (www.reaconverter.com)*
%FSLAX44Y44*%
%MOIN*%
%ADD10C,0.001*%
%LNEXPORT*%
D02*
D10*
%LPD*%
G36*
X22670Y35927D02*
X22050Y35897D01*
X21400Y35850D01*
X20740Y35787D01*
X20080Y35713D01*
X19433Y35627D01*
X18820Y35530D01*
X18250Y35423D01*
X17740Y35313D01*
X17287Y35200D01*
X16827Y35073D01*
X16367Y34930D01*
X15903Y34777D01*
X15450Y34613D01*
X15003Y34440D01*
X14570Y34260D01*
X14153Y34073D01*
X13687Y33857D01*
X12720Y33723D01*
X11753Y33587D01*
X11120Y33550D01*
X10327Y33483D01*
X9630Y33370D01*
X9010Y33200D01*
X8437Y32967D01*
X7893Y32653D01*
X7357Y32253D01*
X6803Y31750D01*
X6213Y31140D01*
X5533Y30380D01*
X4847Y29560D01*
X4167Y28697D01*
X3503Y27820D01*
X2880Y26940D01*
X2307Y26083D01*
X1797Y25270D01*
X1370Y24517D01*
X1313Y24410D01*
X1253Y24300D01*
X1197Y24193D01*
X1140Y24090D01*
X1090Y23997D01*
X1047Y23913D01*
X1010Y23843D01*
X980Y23790D01*
X860Y23557D01*
X730Y23277D01*
X593Y22977D01*
X460Y22663D01*
X337Y22360D01*
X230Y22080D01*
X143Y21843D01*
X90Y21663D01*
X80Y21620D01*
X70Y21573D01*
X60Y21520D01*
X50Y21467D01*
X40Y21410D01*
X33Y21360D01*
X27Y21310D01*
X20Y21267D01*
X0Y21063D01*
X37Y20743D01*
X70Y20423D01*
X133Y20210D01*
X163Y20110D01*
X203Y20003D01*
X247Y19893D01*
X297Y19787D01*
X347Y19680D01*
X403Y19580D01*
X457Y19490D01*
X513Y19407D01*
X563Y19347D01*
X663Y19230D01*
X810Y19070D01*
X997Y18867D01*
X1217Y18630D01*
X1460Y18370D01*
X1727Y18087D01*
X2007Y17790D01*
X2857Y16893D01*
X3513Y16197D01*
X4010Y15667D01*
X4377Y15270D01*
X4647Y14967D01*
X4850Y14730D01*
X5020Y14517D01*
X5183Y14300D01*
X5347Y14073D01*
X5497Y13857D01*
X5630Y13643D01*
X5757Y13427D01*
X5873Y13203D01*
X5987Y12967D01*
X6097Y12710D01*
X6210Y12433D01*
X6407Y11907D01*
X6590Y11347D01*
X6760Y10743D01*
X6927Y10073D01*
X7087Y9323D01*
X7253Y8477D01*
X7420Y7510D01*
X7600Y6417D01*
X7673Y5953D01*
X7737Y5583D01*
X7790Y5283D01*
X7837Y5040D01*
X7883Y4840D01*
X7933Y4667D01*
X7987Y4503D01*
X8050Y4333D01*
X8157Y4080D01*
X8280Y3833D01*
X8423Y3593D01*
X8587Y3360D01*
X8763Y3133D01*
X8957Y2913D01*
X9170Y2703D01*
X9400Y2503D01*
X9670Y2297D01*
X9957Y2120D01*
X10263Y1970D01*
X10593Y1843D01*
X10950Y1743D01*
X11340Y1663D01*
X11760Y1607D01*
X12220Y1570D01*
X12587Y1547D01*
X13013Y1583D01*
X13107Y1590D01*
X13213Y1600D01*
X13327Y1613D01*
X13443Y1627D01*
X13560Y1643D01*
X13677Y1657D01*
X13783Y1673D01*
X13880Y1690D01*
X14320Y1760D01*
X14637D01*
X14953D01*
X15353Y1637D01*
X15450Y1607D01*
X15570Y1567D01*
X15713Y1523D01*
X15873Y1473D01*
X16043Y1417D01*
X16220Y1363D01*
X16397Y1307D01*
X16570Y1250D01*
X17387Y990D01*
X18097Y773D01*
X18723Y590D01*
X19283Y440D01*
X19793Y317D01*
X20277Y217D01*
X20753Y133D01*
X21237Y60D01*
X21687Y0D01*
X23103D01*
X24520D01*
X25053Y77D01*
X25807Y193D01*
X26510Y323D01*
X27173Y467D01*
X27807Y627D01*
X28420Y807D01*
X29023Y1013D01*
X29627Y1240D01*
X30237Y1500D01*
X30633Y1683D01*
X31037Y1893D01*
X31447Y2127D01*
X31863Y2383D01*
X32283Y2663D01*
X32707Y2967D01*
X33137Y3290D01*
X33570Y3637D01*
X33623Y3680D01*
X33680Y3723D01*
X33740Y3770D01*
X33797Y3813D01*
X33853Y3853D01*
X33907Y3890D01*
X33953Y3920D01*
X33997Y3947D01*
X34170Y4050D01*
X34660D01*
X35153D01*
X35553Y4100D01*
X35760Y4127D01*
X35933Y4150D01*
X36087Y4177D01*
X36223Y4203D01*
X36357Y4233D01*
X36493Y4270D01*
X36647Y4313D01*
X36823Y4367D01*
X37293Y4513D01*
X37657Y4693D01*
X38020Y4877D01*
X38287Y5067D01*
X38553Y5257D01*
X38797Y5493D01*
X38990Y5697D01*
X39163Y5893D01*
X39313Y6093D01*
X39440Y6297D01*
X39550Y6503D01*
X39643Y6717D01*
X39720Y6943D01*
X39783Y7183D01*
X39833Y7400D01*
X39867Y7817D01*
X39900Y8233D01*
X39920Y9817D01*
X39940Y11400D01*
X39987Y11597D01*
X40037Y11793D01*
X40143Y11997D01*
X40253Y12200D01*
X40537Y12487D01*
X40820Y12773D01*
X41470Y13257D01*
X41847Y13537D01*
X42197Y13790D01*
X42537Y14033D01*
X42883Y14273D01*
X43257Y14527D01*
X43673Y14803D01*
X44153Y15117D01*
X44717Y15477D01*
X45093Y15723D01*
X45363Y15993D01*
X45483Y16120D01*
X45583Y16223D01*
X45663Y16313D01*
X45733Y16397D01*
X45797Y16477D01*
X45853Y16557D01*
X45910Y16647D01*
X45973Y16750D01*
X46040Y16870D01*
X46110Y17000D01*
X46173Y17137D01*
X46237Y17277D01*
X46293Y17420D01*
X46350Y17567D01*
X46397Y17710D01*
X46440Y17850D01*
X46520Y18133D01*
Y18917D01*
Y19700D01*
X46457Y19933D01*
X46413Y20070D01*
X46347Y20263D01*
X46260Y20500D01*
X46160Y20763D01*
X46050Y21040D01*
X45937Y21320D01*
X45827Y21583D01*
X45723Y21823D01*
X45247Y22847D01*
X44713Y23897D01*
X44143Y24947D01*
X43550Y25970D01*
X42953Y26933D01*
X42370Y27810D01*
X41817Y28573D01*
X41313Y29190D01*
X41050Y29470D01*
X40760Y29753D01*
X40447Y30033D01*
X40120Y30310D01*
X39780Y30573D01*
X39437Y30820D01*
X39093Y31047D01*
X38760Y31247D01*
X38547Y31360D01*
X38300Y31483D01*
X38023Y31613D01*
X37733Y31743D01*
X37437Y31870D01*
X37150Y31990D01*
X36877Y32093D01*
X36637Y32177D01*
X36320Y32283D01*
X35653Y32413D01*
X34987Y32547D01*
X34403Y32733D01*
X34137Y32823D01*
X33877Y32910D01*
X33610Y33007D01*
X33320Y33113D01*
X32993Y33240D01*
X32617Y33387D01*
X32173Y33563D01*
X31653Y33773D01*
X30540Y34217D01*
X29550Y34600D01*
X28673Y34920D01*
X27893Y35190D01*
X27197Y35407D01*
X26570Y35583D01*
X25997Y35717D01*
X25470Y35813D01*
X25053Y35883D01*
X24420Y35917D01*
X24203Y35927D01*
X23990Y35933D01*
X23777Y35940D01*
X23567Y35943D01*
X23350D01*
X23130Y35940D01*
X22903Y35937D01*
X22670Y35927D01*
G37*
%LPC*%
G36*
X24153Y31983D02*
X24787Y31920D01*
X25270Y31833D01*
X25663Y31757D01*
X26057Y31667D01*
X26457Y31563D01*
X26857Y31450D01*
X27253Y31323D01*
X27647Y31187D01*
X28037Y31040D01*
X28420Y30880D01*
X28957Y30653D01*
X29487Y30373D01*
X29983Y30100D01*
X30457Y29817D01*
X30913Y29517D01*
X31357Y29203D01*
X31783Y28873D01*
X32200Y28523D01*
X32607Y28153D01*
X33003Y27760D01*
X33100Y27663D01*
X33200Y27557D01*
X33303Y27450D01*
X33403Y27343D01*
X33497Y27240D01*
X33587Y27143D01*
X33663Y27057D01*
X33727Y26983D01*
X33867Y26810D01*
X34023Y26607D01*
X34187Y26383D01*
X34350Y26150D01*
X34513Y25913D01*
X34663Y25683D01*
X34803Y25463D01*
X34920Y25267D01*
X35023Y25083D01*
X35103Y24943D01*
X35163Y24843D01*
X35207Y24773D01*
X35243Y24727D01*
X35273Y24697D01*
X35307Y24670D01*
X35347Y24647D01*
X35453Y24580D01*
X35587Y24593D01*
X35720Y24607D01*
X37200Y25420D01*
X38680Y26230D01*
X38797Y26227D01*
X38910Y26223D01*
X38997Y26160D01*
X39080Y26097D01*
X41330Y22617D01*
X43577Y19133D01*
X43610Y19033D01*
X43643Y18930D01*
X43593Y18813D01*
X43543Y18697D01*
X39980Y16403D01*
X39263Y15940D01*
X38590Y15503D01*
X37977Y15107D01*
X37437Y14757D01*
X36987Y14463D01*
X36643Y14237D01*
X36417Y14087D01*
X36323Y14020D01*
X36280Y13980D01*
X36243Y13933D01*
X36210Y13883D01*
X36177Y13823D01*
X36140Y13747D01*
X36103Y13647D01*
X36057Y13527D01*
X36007Y13373D01*
X35837Y12920D01*
X35640Y12453D01*
X35417Y11977D01*
X35170Y11500D01*
X34900Y11020D01*
X34613Y10550D01*
X34307Y10087D01*
X33987Y9637D01*
X33837Y9437D01*
X33693Y9253D01*
X33553Y9080D01*
X33403Y8910D01*
X33243Y8730D01*
X33057Y8533D01*
X32843Y8310D01*
X32590Y8053D01*
X31920Y7377D01*
X31407Y6977D01*
X30897Y6580D01*
X30390Y6270D01*
X29887Y5963D01*
X29387Y5720D01*
X28887Y5477D01*
X28320Y5263D01*
X27817Y5083D01*
X27293Y4917D01*
X26757Y4763D01*
X26210Y4630D01*
X25660Y4513D01*
X25117Y4417D01*
X24583Y4337D01*
X24070Y4283D01*
X23653Y4247D01*
X22860Y4250D01*
X22067D01*
X21383Y4333D01*
X20700Y4413D01*
X20127Y4533D01*
X19553Y4657D01*
X18867Y4870D01*
X18180Y5083D01*
X17583Y5333D01*
X16987Y5587D01*
X16387Y5907D01*
X15787Y6227D01*
X15220Y6600D01*
X15100Y6680D01*
X14977Y6763D01*
X14853Y6847D01*
X14737Y6930D01*
X14623Y7010D01*
X14523Y7083D01*
X14437Y7147D01*
X14370Y7200D01*
X14087Y7430D01*
X13600Y7913D01*
X13113Y8400D01*
X12830Y8750D01*
X12390Y9313D01*
X11960Y9913D01*
X11540Y10547D01*
X11133Y11207D01*
X10740Y11890D01*
X10367Y12597D01*
X10017Y13317D01*
X9683Y14050D01*
X9463Y14567D01*
X9217Y15297D01*
X8970Y16027D01*
X8900Y16130D01*
X8827Y16233D01*
X5933Y18833D01*
X3040Y21433D01*
X3003Y21510D01*
X2970Y21587D01*
Y21700D01*
Y21813D01*
X3813Y22990D01*
X4750Y24297D01*
X5537Y25397D01*
X6183Y26293D01*
X6697Y27007D01*
X7087Y27543D01*
X7357Y27917D01*
X7523Y28137D01*
X7587Y28220D01*
X7647Y28267D01*
X7800D01*
X7953D01*
X9633Y27283D01*
X11317Y26303D01*
X11443Y26307D01*
X11470Y26310D01*
X11500Y26313D01*
X11527D01*
X11553Y26317D01*
X11580Y26320D01*
X11600Y26327D01*
X11620Y26330D01*
X11637Y26333D01*
X11703Y26353D01*
X11933Y26663D01*
X12523Y27390D01*
X13207Y28090D01*
X13967Y28760D01*
X14790Y29390D01*
X15663Y29967D01*
X16570Y30480D01*
X17500Y30923D01*
X18437Y31287D01*
X18643Y31357D01*
X18837Y31420D01*
X19027Y31473D01*
X19217Y31527D01*
X19413Y31573D01*
X19633Y31623D01*
X19873Y31677D01*
X20153Y31730D01*
X20450Y31787D01*
X20707Y31837D01*
X20933Y31877D01*
X21140Y31910D01*
X21333Y31937D01*
X21520Y31960D01*
X21713Y31980D01*
X21920Y32000D01*
X22420Y32043D01*
X22970Y32047D01*
X23520Y32050D01*
X24153Y31983D01*
G37*
%LPC*%
G36*
X11983Y31717D02*
X12243Y31650D01*
X12413Y31547D01*
X12453Y31523D01*
X12493Y31493D01*
X12537Y31463D01*
X12583Y31427D01*
X12627Y31393D01*
X12670Y31357D01*
X12710Y31320D01*
X12747Y31290D01*
X12907Y31133D01*
X13020Y30943D01*
X13137Y30757D01*
X13203Y30497D01*
X13270Y30240D01*
Y30090D01*
Y29937D01*
X13213Y29720D01*
X13160Y29500D01*
X13060Y29300D01*
X12960Y29103D01*
X12757Y28897D01*
X12550Y28693D01*
X12383Y28610D01*
X12347Y28590D01*
X12307Y28573D01*
X12263Y28553D01*
X12217Y28533D01*
X12173Y28517D01*
X12130Y28500D01*
X12090Y28483D01*
X12053Y28473D01*
X11887Y28417D01*
X11680Y28403D01*
X11473Y28387D01*
X11247Y28437D01*
X11020Y28483D01*
X10803Y28590D01*
X10590Y28700D01*
X10380Y28907D01*
X10173Y29117D01*
X10070Y29323D01*
X9967Y29533D01*
X9917Y29783D01*
X9863Y30033D01*
X9883Y30217D01*
X9897Y30300D01*
X9913Y30383D01*
X9933Y30470D01*
X9957Y30557D01*
X9983Y30640D01*
X10017Y30727D01*
X10050Y30807D01*
X10090Y30890D01*
X10167Y31043D01*
X10350Y31243D01*
X10533Y31440D01*
X10740Y31550D01*
X10950Y31663D01*
X11167Y31720D01*
X11387Y31780D01*
X11553D01*
X11723Y31783D01*
X11983Y31717D01*
G37*
%LPC*%
G36*
X36320Y30163D02*
X36363Y30153D01*
X36410Y30137D01*
X36463Y30120D01*
X36513Y30103D01*
X36563Y30083D01*
X36613Y30063D01*
X36660Y30043D01*
X36700Y30023D01*
X36883Y29933D01*
X37103Y29717D01*
X37327Y29500D01*
X37410Y29333D01*
X37427Y29297D01*
X37447Y29253D01*
X37467Y29210D01*
X37487Y29163D01*
X37507Y29113D01*
X37523Y29067D01*
X37540Y29023D01*
X37553Y28983D01*
X37613Y28800D01*
Y28533D01*
Y28267D01*
X37553Y28067D01*
X37537Y28023D01*
X37520Y27973D01*
X37500Y27923D01*
X37480Y27870D01*
X37457Y27820D01*
X37433Y27770D01*
X37413Y27723D01*
X37390Y27683D01*
X37287Y27500D01*
X37120Y27333D01*
X36953Y27163D01*
X36787Y27070D01*
X36747Y27050D01*
X36703Y27030D01*
X36653Y27007D01*
X36603Y26983D01*
X36550Y26963D01*
X36500Y26943D01*
X36450Y26923D01*
X36403Y26910D01*
X36187Y26840D01*
X35920Y26843D01*
X35653D01*
X35430Y26913D01*
X35210Y26983D01*
X35007Y27120D01*
X34803Y27253D01*
X34667Y27410D01*
X34527Y27567D01*
X34430Y27757D01*
X34333Y27950D01*
X34287Y28157D01*
X34237Y28367D01*
Y28533D01*
Y28703D01*
X34287Y28900D01*
X34337Y29100D01*
X34443Y29317D01*
X34553Y29533D01*
X34740Y29720D01*
X34927Y29910D01*
X35140Y30013D01*
X35187Y30033D01*
X35237Y30057D01*
X35290Y30077D01*
X35343Y30100D01*
X35397Y30120D01*
X35447Y30137D01*
X35493Y30153D01*
X35537Y30163D01*
X35720Y30213D01*
X35920D01*
X36120Y30217D01*
X36320Y30163D01*
G37*
%LPC*%
G36*
X36597Y9947D02*
X36640Y9930D01*
X36690Y9913D01*
X36740Y9893D01*
X36790Y9873D01*
X36837Y9850D01*
X36883Y9830D01*
X36923Y9810D01*
X36957Y9790D01*
X37110Y9707D01*
X37287Y9530D01*
X37463Y9353D01*
X37550Y9207D01*
X37567Y9173D01*
X37587Y9137D01*
X37610Y9093D01*
X37630Y9047D01*
X37650Y9000D01*
X37670Y8953D01*
X37687Y8907D01*
X37703Y8863D01*
X37770Y8667D01*
X37790Y8433D01*
X37807Y8200D01*
X37740Y7947D01*
X37673Y7690D01*
X37563Y7497D01*
X37457Y7307D01*
X37287Y7137D01*
X37117Y6967D01*
X36940Y6873D01*
X36900Y6853D01*
X36857Y6830D01*
X36807Y6810D01*
X36753Y6787D01*
X36697Y6767D01*
X36643Y6747D01*
X36590Y6730D01*
X36543Y6713D01*
X36320Y6650D01*
X36103D01*
X35883D01*
X35660Y6713D01*
X35613Y6730D01*
X35560Y6747D01*
X35507Y6763D01*
X35457Y6787D01*
X35403Y6807D01*
X35357Y6827D01*
X35313Y6847D01*
X35273Y6867D01*
X35113Y6953D01*
X34953Y7107D01*
X34797Y7257D01*
X34677Y7443D01*
X34560Y7630D01*
X34497Y7830D01*
X34487Y7873D01*
X34473Y7923D01*
X34460Y7973D01*
X34450Y8027D01*
X34437Y8080D01*
X34430Y8127D01*
X34423Y8173D01*
X34417Y8217D01*
X34397Y8400D01*
X34450Y8650D01*
X34500Y8900D01*
X34610Y9117D01*
X34720Y9330D01*
X34903Y9520D01*
X35087Y9707D01*
X35287Y9807D01*
X35417Y9870D01*
X35537Y9920D01*
X35653Y9960D01*
X35763Y9990D01*
X35870Y10013D01*
X35983Y10023D01*
X36097Y10027D01*
X36220Y10023D01*
X36387Y10013D01*
X36597Y9947D01*
G37*
%LPC*%
G36*
X12400Y7530D02*
X12440Y7517D01*
X12483Y7503D01*
X12530Y7487D01*
X12577Y7467D01*
X12627Y7450D01*
X12670Y7430D01*
X12713Y7410D01*
X12750Y7393D01*
X12917Y7307D01*
X13140Y7087D01*
X13360Y6867D01*
X13443Y6700D01*
X13460Y6663D01*
X13480Y6620D01*
X13500Y6573D01*
X13517Y6527D01*
X13537Y6480D01*
X13553Y6430D01*
X13567Y6387D01*
X13580Y6343D01*
X13637Y6157D01*
X13633Y5893D01*
Y5633D01*
X13567Y5420D01*
X13500Y5207D01*
X13383Y5013D01*
X13267Y4823D01*
X13090Y4660D01*
X12913Y4500D01*
X12733Y4410D01*
X12693Y4390D01*
X12647Y4370D01*
X12597Y4350D01*
X12547Y4330D01*
X12493Y4313D01*
X12443Y4297D01*
X12397Y4280D01*
X12353Y4270D01*
X12153Y4217D01*
X11957D01*
X11760D01*
X11560Y4270D01*
X11513Y4280D01*
X11467Y4297D01*
X11413Y4317D01*
X11360Y4337D01*
X11307Y4357D01*
X11253Y4377D01*
X11207Y4400D01*
X11163Y4420D01*
X10967Y4520D01*
X10770Y4717D01*
X10570Y4913D01*
X10470Y5117D01*
X10447Y5160D01*
X10427Y5210D01*
X10403Y5260D01*
X10383Y5313D01*
X10363Y5367D01*
X10347Y5417D01*
X10330Y5463D01*
X10317Y5507D01*
X10270Y5697D01*
Y5920D01*
Y6143D01*
X10340Y6370D01*
X10410Y6600D01*
X10520Y6783D01*
X10630Y6967D01*
X10773Y7107D01*
X10807Y7137D01*
X10843Y7167D01*
X10883Y7200D01*
X10927Y7233D01*
X10967Y7267D01*
X11010Y7297D01*
X11050Y7323D01*
X11083Y7347D01*
X11250Y7453D01*
X11467Y7517D01*
X11597Y7550D01*
X11717Y7577D01*
X11833Y7590D01*
X11940Y7597D01*
X12050Y7593D01*
X12160Y7583D01*
X12277Y7560D01*
X12400Y7530D01*
G37*
D02M02*
