<?xml version="1.0" encoding="utf-8"?>
<!-- Generator: Adobe Illustrator 13.0.0, SVG Export Plug-In . SVG Version: 6.00 Build 14948)  -->
<!DOCTYPE svg PUBLIC "-//W3C//DTD SVG 1.1//EN" "http://www.w3.org/Graphics/SVG/1.1/DTD/svg11.dtd">
<svg version="1.1" id="Capa_1" xmlns="http://www.w3.org/2000/svg" xmlns:xlink="http://www.w3.org/1999/xlink" x="0px" y="0px"
	 width="335.438px" height="259.331px" viewBox="0 0 335.438 259.331" enable-background="new 0 0 335.438 259.331"
	 xml:space="preserve">
<g id="BLOCK_x5F_RECORD">
	<g id="ARC_15_">
		<g id="XMLID_1_">
			<g>
				<path d="M333.157,112.15c4.279,9.72,1.579,23.46-6.061,30.83c-2,2.351-4.479,4-6.75,5.3c-6.479,3.7-22.979,15.38-27.61,19.45
					c-4.64,4.08-5.38,7.79-5.38,9.641c0,1.859-0.18,16.5-0.37,23.17c-0.18,6.67-1.479,15.38-12.779,22.609
					c-7.54,4.82-16.87,6.92-27.99,6.3c-1.36,0.62-2.41,1.23-3.15,1.851c-1.109,0.93-6.859,5.75-13.899,10.38
					s-20.76,11.3-38.92,14.83c-18.16,3.52-30.95,3.149-44.66,0.55c-13.72-2.59-35.59-10.93-38.92-11.12
					c-3.34-0.18-4.64,0.37-10.2,1.12c-5.56,0.74-18.9,1.11-27.24-5.189c-8.34-6.311-11.86-13.351-13.34-22.98
					c-1.49-9.64-4.82-31.7-8.53-42.82c-3.7-11.12-6.3-17.229-16.49-28.17c-5.09-5.47-9.68-10.33-13.46-14.31
					c-3.78-3.98-6.75-7.09-8.6-9.04c-0.55-0.58-1.11-1.16-1.66-1.75c-0.46-0.48-0.92-0.96-1.38-1.45
					c-4.91-4.68-6.91-13.56-4.49-19.9c0.66-1.99,1.43-3.96,2.25-5.9c0.83-1.94,1.71-3.85,2.63-5.74c1.84-3.79,3.84-7.5,5.94-11.15
					c1.77-3.07,3.66-6.05,5.61-8.99c1.95-2.95,3.97-5.85,6.03-8.72s4.16-5.71,6.31-8.52c2.15-2.8,4.34-5.58,6.62-8.28
					c1.87-2.23,3.75-4.46,5.69-6.65c1.93-2.18,3.91-4.32,5.99-6.37c1.03-1.02,2.1-2.02,3.19-2.98c1.09-0.97,2.22-1.9,3.38-2.78
					c1.16-0.88,2.35-1.7,3.59-2.45c1.24-0.75,2.53-1.42,3.88-1.99c2.87-1.19,5.83-1.98,8.85-2.52c1.52-0.27,3.04-0.47,4.58-0.63
					c1.53-0.15,3.07-0.26,4.61-0.33c0.77-0.04,1.54-0.07,2.32-0.1c0.38-0.01,0.77-0.03,1.15-0.05c0.39-0.02,0.77-0.04,1.15-0.09
					c1.53-0.22,3.06-0.44,4.58-0.66c3.05-0.43,6.11-0.87,9.16-1.3c0.16-0.08,0.31-0.15,0.46-0.23c5.01-2.41,12.24-5.93,26.14-9.63
					c13.9-3.71,40.77-6.49,56.33-4.45c15.57,2.04,40.59,12.79,52.64,17.61c12.051,4.82,17.79,6.48,22.61,7.22
					c4.82,0.75,8.15,1.86,15.2,5.01l0.96,0.43c9.58,3.67,22.75,14.33,28.33,22.93C312.217,67.84,327.447,95.7,333.157,112.15z
					 M312.997,124.84c1.31-0.84,1.689-2.6,0.84-3.92l-32.17-49.85c-0.79-1.25-2.46-1.67-3.74-0.96l-20.62,11.25
					c-1.37,0.75-3.09,0.25-3.84-1.12c-18.66-36.72-65.81-59.15-106.07-50.47c-1.21,0.21-2.42,0.45-3.62,0.72
					c-20.58,3.2-47.54,20.43-59.09,37.76c-0.84,1.14-2.48,1.47-3.69,0.74l-23.38-13.64c-1.24-0.74-2.91-0.39-3.74,0.8l-32.3,44.99
					c-0.84,1.15-0.66,2.82,0.41,3.76l41.05,36.95c0.69,0.55,1.45,1.76,1.65,2.62c0.08,0.3,0.26,0.88,0.35,1.17
					c0.53,1.24,0.94,2.43,1.23,3.56c0.16,0.65,0.55,1.82,1.14,3.4c0.14,0.36,0.28,0.73,0.42,1.09c0.15,0.391,0.31,0.771,0.46,1.16
					c5.02,12.44,18.62,40.28,36.71,53.65c22.05,16.31,47.63,22.239,71.17,19.46c20.47-2.41,43.899-10.16,59.41-27.761
					c9.689-8.649,21.18-27.25,24.569-39.8c0.29-1.08,1.351-2.45,2.32-3L312.997,124.84z M272.327,198.85
					c0-6.85-5.551-12.4-12.4-12.4c-3.43,0-6.53,1.391-8.77,3.631c-2.24,2.25-3.631,5.35-3.631,8.77c0,6.85,5.551,12.4,12.4,12.4
					c3.43,0,6.53-1.391,8.771-3.63C270.937,205.371,272.327,202.27,272.327,198.85z M271.077,53.5c0-6.84-5.551-12.4-12.4-12.4
					c-3.42,0-6.52,1.39-8.77,3.63c-2.24,2.25-3.631,5.35-3.631,8.77c0,6.85,5.551,12.4,12.4,12.4c3.42,0,6.521-1.39,8.771-3.63
					C269.687,60.03,271.077,56.93,271.077,53.5z M98.457,216.36c0-6.84-5.55-12.39-12.4-12.39c-3.42,0-6.52,1.39-8.76,3.63
					c-2.24,2.24-3.63,5.34-3.63,8.76c0,6.851,5.55,12.4,12.39,12.4c3.42,0,6.52-1.39,8.77-3.63
					C97.067,222.89,98.457,219.791,98.457,216.36z M95.707,42.25c0-6.85-5.55-12.4-12.4-12.4c-3.43,0-6.53,1.39-8.77,3.63
					c-2.24,2.25-3.63,5.35-3.63,8.77c0,6.84,5.55,12.39,12.4,12.39c3.43,0,6.53-1.39,8.77-3.63
					C94.317,48.77,95.707,45.67,95.707,42.25z"/>
			</g>
			<g>
				<path fill="none" stroke="#000000" stroke-width="0.25" stroke-linecap="round" stroke-linejoin="round" d="M143.777,30.49
					c1.2-0.27,2.41-0.51,3.62-0.72"/>
				<path fill="none" stroke="#000000" stroke-width="0.25" stroke-linecap="round" stroke-linejoin="round" d="M66.267,149.2
					c-0.29-1.13-0.7-2.319-1.23-3.56"/>
				<path fill="none" stroke="#000000" stroke-width="0.25" stroke-linecap="round" stroke-linejoin="round" d="M68.287,154.85
					c-0.15-0.39-0.31-0.77-0.46-1.16c-0.14-0.359-0.28-0.729-0.42-1.09"/>
				<path fill="none" stroke="#000000" stroke-width="0.25" stroke-linecap="round" stroke-linejoin="round" d="M176.167,227.96
					c-23.54,2.779-49.12-3.15-71.17-19.46"/>
				<path fill="none" stroke="#000000" stroke-width="0.25" stroke-linecap="round" stroke-linejoin="round" d="M235.577,200.2
					c-15.511,17.601-38.94,25.351-59.41,27.761"/>
				<path fill="none" stroke="#000000" stroke-width="0.25" stroke-linecap="round" stroke-linejoin="round" d="M83.307,29.85
					c6.85,0,12.4,5.55,12.4,12.4c0,3.42-1.39,6.52-3.63,8.76c-2.24,2.24-5.34,3.63-8.77,3.63"/>
				<path fill="none" stroke="#000000" stroke-width="0.25" stroke-linecap="round" stroke-linejoin="round" d="M83.307,54.64
					c-6.85,0-12.4-5.55-12.4-12.39c0-3.42,1.39-6.52,3.63-8.77c2.24-2.24,5.34-3.63,8.77-3.63"/>
				<path fill="none" stroke="#000000" stroke-width="0.25" stroke-linecap="round" stroke-linejoin="round" d="M259.927,211.25
					c-6.85,0-12.4-5.551-12.4-12.4c0-3.42,1.391-6.52,3.631-8.77c2.239-2.24,5.34-3.631,8.77-3.631"/>
				<path fill="none" stroke="#000000" stroke-width="0.25" stroke-linecap="round" stroke-linejoin="round" d="M259.927,186.45
					c6.85,0,12.4,5.551,12.4,12.4c0,3.42-1.391,6.521-3.63,8.771c-2.24,2.239-5.341,3.63-8.771,3.63"/>
				<path fill="none" stroke="#000000" stroke-width="0.25" stroke-linecap="round" stroke-linejoin="round" d="M86.057,228.76
					c-6.84,0-12.39-5.55-12.39-12.4c0-3.42,1.39-6.52,3.63-8.76c2.24-2.24,5.34-3.63,8.76-3.63"/>
				<path fill="none" stroke="#000000" stroke-width="0.25" stroke-linecap="round" stroke-linejoin="round" d="M86.057,203.97
					c6.85,0,12.4,5.55,12.4,12.39c0,3.431-1.39,6.53-3.63,8.771c-2.25,2.24-5.35,3.63-8.77,3.63"/>
				<path fill="none" stroke="#000000" stroke-width="0.25" stroke-linecap="round" stroke-linejoin="round" d="M258.677,41.1
					c6.85,0,12.4,5.56,12.4,12.4c0,3.43-1.391,6.53-3.63,8.77c-2.25,2.24-5.351,3.63-8.771,3.63"/>
				<path fill="none" stroke="#000000" stroke-width="0.25" stroke-linecap="round" stroke-linejoin="round" d="M258.677,65.9
					c-6.85,0-12.4-5.55-12.4-12.4c0-3.42,1.391-6.52,3.631-8.77c2.25-2.24,5.35-3.63,8.77-3.63"/>
				<path fill="none" stroke="#000000" stroke-width="0.25" stroke-linecap="round" stroke-linejoin="round" d="M36.667,44.15
					c-2.28,2.7-4.47,5.48-6.62,8.28c-2.15,2.81-4.25,5.65-6.31,8.52s-4.08,5.77-6.03,8.72c-1.95,2.94-3.84,5.92-5.61,8.99"/>
				<path fill="none" stroke="#000000" stroke-width="0.25" stroke-linecap="round" stroke-linejoin="round" d="M62.387,20.93
					c-1.35,0.57-2.64,1.24-3.88,1.99c-1.24,0.75-2.43,1.57-3.59,2.45c-1.16,0.88-2.29,1.81-3.38,2.78
					c-1.09,0.96-2.16,1.96-3.19,2.98c-2.08,2.05-4.06,4.19-5.99,6.37c-1.94,2.19-3.82,4.42-5.69,6.65"/>
				<path fill="none" stroke="#000000" stroke-width="0.25" stroke-linecap="round" stroke-linejoin="round" d="M98.787,15.25
					c-3.05,0.43-6.11,0.87-9.16,1.3c-1.52,0.22-3.05,0.44-4.58,0.66c-0.38,0.05-0.76,0.07-1.15,0.09c-0.38,0.02-0.77,0.04-1.15,0.05
					c-0.78,0.03-1.55,0.06-2.32,0.1c-1.54,0.07-3.08,0.18-4.61,0.33c-1.54,0.16-3.06,0.36-4.58,0.63c-3.02,0.54-5.98,1.33-8.85,2.52
					"/>
				<path fill="none" stroke="#000000" stroke-width="0.25" stroke-linecap="round" stroke-linejoin="round" d="M99.247,15.02
					c-0.15,0.08-0.3,0.15-0.46,0.23"/>
				<path fill="none" stroke="#000000" stroke-width="0.25" stroke-linecap="round" stroke-linejoin="round" d="M125.387,5.39
					c-13.9,3.7-21.13,7.22-26.14,9.63"/>
				<path fill="none" stroke="#000000" stroke-width="0.25" stroke-linecap="round" stroke-linejoin="round" d="M181.717,0.94
					c-15.56-2.04-42.43,0.74-56.33,4.45"/>
				<path fill="none" stroke="#000000" stroke-width="0.25" stroke-linecap="round" stroke-linejoin="round" d="M234.356,18.55
					c-12.05-4.82-37.069-15.57-52.64-17.61"/>
				<path fill="none" stroke="#000000" stroke-width="0.25" stroke-linecap="round" stroke-linejoin="round" d="M256.967,25.77
					c-4.82-0.74-10.56-2.4-22.61-7.22"/>
				<path fill="none" stroke="#000000" stroke-width="0.25" stroke-linecap="round" stroke-linejoin="round" d="M272.167,30.78
					c-7.05-3.15-10.38-4.26-15.2-5.01"/>
				<path fill="none" stroke="#000000" stroke-width="0.25" stroke-linecap="round" stroke-linejoin="round" d="M320.347,148.28
					c2.271-1.3,4.75-2.949,6.75-5.3"/>
				<path fill="none" stroke="#000000" stroke-width="0.25" stroke-linecap="round" stroke-linejoin="round" d="M292.736,167.73
					c4.631-4.07,21.131-15.75,27.61-19.45"/>
				<path fill="none" stroke="#000000" stroke-width="0.25" stroke-linecap="round" stroke-linejoin="round" d="M287.356,177.371
					c0-1.851,0.74-5.561,5.38-9.641"/>
				<path fill="none" stroke="#000000" stroke-width="0.25" stroke-linecap="round" stroke-linejoin="round" d="M286.986,200.541
					c0.19-6.67,0.37-21.311,0.37-23.17"/>
				<path fill="none" stroke="#000000" stroke-width="0.25" stroke-linecap="round" stroke-linejoin="round" d="M274.207,223.15
					c11.3-7.229,12.6-15.939,12.779-22.609"/>
				<path fill="none" stroke="#000000" stroke-width="0.25" stroke-linecap="round" stroke-linejoin="round" d="M246.217,229.45
					c11.12,0.62,20.45-1.479,27.99-6.3"/>
				<path fill="none" stroke="#000000" stroke-width="0.25" stroke-linecap="round" stroke-linejoin="round" d="M243.066,231.3
					c0.74-0.62,1.79-1.23,3.15-1.851"/>
				<path fill="none" stroke="#000000" stroke-width="0.25" stroke-linecap="round" stroke-linejoin="round" d="M229.167,241.68
					c7.04-4.63,12.79-9.45,13.899-10.38"/>
				<path fill="none" stroke="#000000" stroke-width="0.25" stroke-linecap="round" stroke-linejoin="round" d="M190.247,256.51
					c18.16-3.53,31.88-10.2,38.92-14.83"/>
				<path fill="none" stroke="#000000" stroke-width="0.25" stroke-linecap="round" stroke-linejoin="round" d="M145.587,257.06
					c13.71,2.6,26.5,2.97,44.66-0.55"/>
				<path fill="none" stroke="#000000" stroke-width="0.25" stroke-linecap="round" stroke-linejoin="round" d="M106.667,245.94
					c3.33,0.19,25.2,8.53,38.92,11.12"/>
				<path fill="none" stroke="#000000" stroke-width="0.25" stroke-linecap="round" stroke-linejoin="round" d="M96.467,247.06
					c5.56-0.75,6.86-1.3,10.2-1.12"/>
				<path fill="none" stroke="#000000" stroke-width="0.25" stroke-linecap="round" stroke-linejoin="round" d="M69.227,241.871
					c8.34,6.3,21.68,5.93,27.24,5.189"/>
				<path fill="none" stroke="#000000" stroke-width="0.25" stroke-linecap="round" stroke-linejoin="round" d="M55.887,218.89
					c1.48,9.63,5,16.67,13.34,22.98"/>
				<path fill="none" stroke="#000000" stroke-width="0.25" stroke-linecap="round" stroke-linejoin="round" d="M47.357,176.07
					c3.71,11.12,7.04,33.181,8.53,42.82"/>
				<path fill="none" stroke="#000000" stroke-width="0.25" stroke-linecap="round" stroke-linejoin="round" d="M30.867,147.9
					c10.19,10.94,12.79,17.05,16.49,28.17"/>
				<path fill="none" stroke="#000000" stroke-width="0.25" stroke-linecap="round" stroke-linejoin="round" d="M5.767,121.35
					c0.46,0.49,0.92,0.97,1.38,1.45c0.55,0.59,1.11,1.17,1.66,1.75c1.85,1.95,4.82,5.06,8.6,9.04c3.78,3.979,8.37,8.84,13.46,14.31"
					/>
				<path fill="none" stroke="#000000" stroke-width="0.25" stroke-linecap="round" stroke-linejoin="round" d="M12.097,78.66
					c-2.1,3.65-4.1,7.36-5.94,11.15c-0.92,1.89-1.8,3.8-2.63,5.74c-0.82,1.94-1.59,3.91-2.25,5.9"/>
				<path fill="none" stroke="#000000" stroke-width="0.25" stroke-linecap="round" stroke-linejoin="round" d="M104.997,208.5
					c-18.09-13.37-31.69-41.21-36.71-53.65"/>
				<path fill="none" stroke="#000000" stroke-width="0.25" stroke-linecap="round" stroke-linejoin="round" d="M67.407,152.6
					c-0.59-1.58-0.98-2.75-1.14-3.4"/>
				
					<line fill="none" stroke="#000000" stroke-width="0.25" stroke-linecap="round" stroke-linejoin="round" x1="281.667" y1="71.07" x2="313.837" y2="120.92"/>
				
					<line fill="none" stroke="#000000" stroke-width="0.25" stroke-linecap="round" stroke-linejoin="round" x1="277.927" y1="70.11" x2="257.307" y2="81.36"/>
				
					<line fill="none" stroke="#000000" stroke-width="0.25" stroke-linecap="round" stroke-linejoin="round" x1="57.617" y1="55.35" x2="80.997" y2="68.99"/>
				
					<line fill="none" stroke="#000000" stroke-width="0.25" stroke-linecap="round" stroke-linejoin="round" x1="53.877" y1="56.15" x2="21.577" y2="101.14"/>
				
					<line fill="none" stroke="#000000" stroke-width="0.25" stroke-linecap="round" stroke-linejoin="round" x1="21.987" y1="104.9" x2="63.037" y2="141.85"/>
				
					<line fill="none" stroke="#000000" stroke-width="0.25" stroke-linecap="round" stroke-linejoin="round" x1="262.467" y1="157.4" x2="312.997" y2="124.84"/>
				
					<line fill="none" stroke="#000000" stroke-width="0.25" stroke-linecap="round" stroke-linejoin="round" x1="272.167" y1="30.78" x2="273.127" y2="31.21"/>
				<path fill="none" stroke="#000000" stroke-width="0.25" stroke-linecap="round" stroke-linejoin="round" d="M312.997,124.84
					c1.31-0.84,1.689-2.6,0.84-3.92"/>
				<path fill="none" stroke="#000000" stroke-width="0.25" stroke-linecap="round" stroke-linejoin="round" d="M281.667,71.07
					c-0.79-1.25-2.46-1.67-3.74-0.96"/>
				<path fill="none" stroke="#000000" stroke-width="0.25" stroke-linecap="round" stroke-linejoin="round" d="M253.467,80.24
					c0.75,1.37,2.47,1.87,3.84,1.12"/>
				<path fill="none" stroke="#000000" stroke-width="0.25" stroke-linecap="round" stroke-linejoin="round" d="M253.467,80.24
					c-18.66-36.72-65.81-59.15-106.07-50.47"/>
				<path fill="none" stroke="#000000" stroke-width="0.25" stroke-linecap="round" stroke-linejoin="round" d="M143.777,30.49
					c-20.58,3.2-47.54,20.43-59.09,37.76"/>
				<path fill="none" stroke="#000000" stroke-width="0.25" stroke-linecap="round" stroke-linejoin="round" d="M80.997,68.99
					c1.21,0.73,2.85,0.4,3.69-0.74"/>
				<path fill="none" stroke="#000000" stroke-width="0.25" stroke-linecap="round" stroke-linejoin="round" d="M57.617,55.35
					c-1.24-0.74-2.91-0.39-3.74,0.8"/>
				<path fill="none" stroke="#000000" stroke-width="0.25" stroke-linecap="round" stroke-linejoin="round" d="M21.577,101.14
					c-0.84,1.15-0.66,2.82,0.41,3.76"/>
				<path fill="none" stroke="#000000" stroke-width="0.25" stroke-linecap="round" stroke-linejoin="round" d="M64.687,144.47
					c-0.2-0.86-0.96-2.07-1.65-2.62"/>
				<path fill="none" stroke="#000000" stroke-width="0.25" stroke-linecap="round" stroke-linejoin="round" d="M64.687,144.47
					c0.08,0.3,0.26,0.88,0.35,1.17"/>
				<path fill="none" stroke="#000000" stroke-width="0.25" stroke-linecap="round" stroke-linejoin="round" d="M235.577,200.2
					c9.689-8.649,21.18-27.25,24.569-39.8"/>
				<path fill="none" stroke="#000000" stroke-width="0.25" stroke-linecap="round" stroke-linejoin="round" d="M262.467,157.4
					c-0.97,0.55-2.03,1.92-2.32,3"/>
				<path fill="none" stroke="#000000" stroke-width="0.25" stroke-linecap="round" stroke-linejoin="round" d="M301.457,54.14
					c-5.58-8.6-18.75-19.26-28.33-22.93"/>
				<path fill="none" stroke="#000000" stroke-width="0.25" stroke-linecap="round" stroke-linejoin="round" d="M333.157,112.15
					c-5.71-16.45-20.94-44.31-31.7-58.01"/>
				<path fill="none" stroke="#000000" stroke-width="0.25" stroke-linecap="round" stroke-linejoin="round" d="M327.097,142.98
					c7.64-7.37,10.34-21.11,6.061-30.83"/>
				<path fill="none" stroke="#000000" stroke-width="0.25" stroke-linecap="round" stroke-linejoin="round" d="M1.277,101.45
					c-2.42,6.34-0.42,15.22,4.49,19.9"/>
			</g>
		</g>
	</g>
</g>
</svg>
